<svg width="70" height="72" viewBox="0 0 70 72" fill="none" xmlns="http://www.w3.org/2000/svg">
<path d="M68.3484 0.873659C67.9592 0.470699 67.4674 0.191705 66.9308 0.0694792C66.3943 -0.0527461 65.8354 -0.0131216 65.3198 0.183694L1.8615 24.1825C1.31422 24.3983 0.84305 24.7823 0.51056 25.2833C0.178071 25.7843 0 26.3786 0 26.9873C0 27.596 0.178071 28.1904 0.51056 28.6914C0.84305 29.1923 1.31422 29.5763 1.8615 29.7922L29.5524 41.3116L40.6287 70.1101C40.8368 70.6543 41.1935 71.1232 41.6548 71.459C42.1162 71.7948 42.6619 71.9829 43.2247 72C43.8077 71.9876 44.3733 71.7917 44.847 71.4383C45.3207 71.0848 45.6804 70.5904 45.8785 70.0201L68.9542 4.0235C69.1507 3.49275 69.1981 2.91484 69.0909 2.35715C68.9836 1.79946 68.7261 1.28497 68.3484 0.873659V0.873659ZM43.2247 60.6006L35.1771 39.6017L48.9937 25.2324L44.9266 21.0026L30.9946 35.4919L10.9187 27.0023L61.4834 8.01329L43.2247 60.6006Z" fill="#0D5C63"/>
</svg>
