<svg width="89" height="20" viewBox="0 0 89 20" fill="none" xmlns="http://www.w3.org/2000/svg">
<path d="M0.992188 18.9998V2.19982H8.26419C9.76819 2.19982 11.0642 2.44782 12.1522 2.94382C13.2402 3.42382 14.0802 4.11982 14.6722 5.03182C15.2642 5.94382 15.5602 7.03182 15.5602 8.29582C15.5602 9.54382 15.2642 10.6238 14.6722 11.5358C14.0802 12.4318 13.2402 13.1198 12.1522 13.5998C11.0642 14.0798 9.76819 14.3198 8.26419 14.3198H3.15219L4.88019 12.6158V18.9998H0.992188ZM11.6722 18.9998L7.47219 12.9038H11.6242L15.8722 18.9998H11.6722ZM4.88019 13.0478L3.15219 11.2238H8.04819C9.24819 11.2238 10.1442 10.9678 10.7362 10.4558C11.3282 9.92782 11.6242 9.20782 11.6242 8.29582C11.6242 7.36782 11.3282 6.64782 10.7362 6.13582C10.1442 5.62382 9.24819 5.36782 8.04819 5.36782H3.15219L4.88019 3.51982V13.0478Z" fill="#252B42"/>
<path d="M24.8846 19.1918C23.4126 19.1918 22.1166 18.9038 20.9966 18.3278C19.8926 17.7518 19.0366 16.9678 18.4286 15.9758C17.8206 14.9678 17.5166 13.8238 17.5166 12.5438C17.5166 11.2478 17.8126 10.1038 18.4046 9.11182C19.0126 8.10382 19.8366 7.31982 20.8766 6.75982C21.9166 6.18382 23.0926 5.89582 24.4046 5.89582C25.6686 5.89582 26.8046 6.16782 27.8126 6.71182C28.8366 7.23982 29.6446 8.00782 30.2366 9.01582C30.8286 10.0078 31.1246 11.1998 31.1246 12.5918C31.1246 12.7358 31.1166 12.9038 31.1006 13.0958C31.0846 13.2718 31.0686 13.4398 31.0526 13.5998H20.5646V11.4158H29.0846L27.6446 12.0638C27.6446 11.3918 27.5086 10.8078 27.2366 10.3118C26.9646 9.81582 26.5886 9.43182 26.1086 9.15982C25.6286 8.87182 25.0686 8.72782 24.4286 8.72782C23.7886 8.72782 23.2206 8.87182 22.7246 9.15982C22.2446 9.43182 21.8686 9.82382 21.5966 10.3358C21.3246 10.8318 21.1886 11.4238 21.1886 12.1118V12.6878C21.1886 13.3918 21.3406 14.0158 21.6446 14.5598C21.9646 15.0878 22.4046 15.4958 22.9646 15.7838C23.5406 16.0558 24.2126 16.1918 24.9806 16.1918C25.6686 16.1918 26.2686 16.0878 26.7806 15.8798C27.3086 15.6718 27.7886 15.3598 28.2206 14.9438L30.2126 17.1038C29.6206 17.7758 28.8766 18.2958 27.9806 18.6638C27.0846 19.0158 26.0526 19.1918 24.8846 19.1918Z" fill="#252B42"/>
<path d="M33.7173 18.9998V1.19182H37.4613V18.9998H33.7173Z" fill="#252B42"/>
<path d="M44.54 18.9998L39.116 6.08782H42.98L47.492 17.1998H45.572L50.252 6.08782H53.852L48.404 18.9998H44.54Z" fill="#252B42"/>
<path d="M55.4798 18.9998V6.08782H59.2238V18.9998H55.4798ZM57.3517 4.28782C56.6637 4.28782 56.1038 4.08782 55.6718 3.68782C55.2398 3.28782 55.0238 2.79182 55.0238 2.19982C55.0238 1.60782 55.2398 1.11182 55.6718 0.711817C56.1038 0.311817 56.6637 0.111816 57.3517 0.111816C58.0397 0.111816 58.5997 0.303817 59.0317 0.687818C59.4637 1.05582 59.6798 1.53582 59.6798 2.12782C59.6798 2.75182 59.4637 3.27182 59.0317 3.68782C58.6157 4.08782 58.0557 4.28782 57.3517 4.28782Z" fill="#252B42"/>
<path d="M67.1425 19.1918C66.0385 19.1918 64.9745 19.0638 63.9505 18.8078C62.9425 18.5358 62.1425 18.1998 61.5505 17.7998L62.7985 15.1118C63.3905 15.4798 64.0865 15.7838 64.8865 16.0238C65.7025 16.2478 66.5025 16.3598 67.2865 16.3598C68.1505 16.3598 68.7585 16.2558 69.1105 16.0478C69.4785 15.8398 69.6625 15.5518 69.6625 15.1838C69.6625 14.8798 69.5185 14.6558 69.2305 14.5118C68.9585 14.3518 68.5905 14.2318 68.1265 14.1518C67.6625 14.0718 67.1505 13.9918 66.5905 13.9118C66.0465 13.8318 65.4945 13.7278 64.9345 13.5998C64.3745 13.4558 63.8625 13.2478 63.3985 12.9758C62.9345 12.7038 62.5585 12.3358 62.2705 11.8718C61.9985 11.4078 61.8625 10.8078 61.8625 10.0718C61.8625 9.25582 62.0945 8.53582 62.5585 7.91182C63.0385 7.28782 63.7265 6.79982 64.6225 6.44782C65.5185 6.07982 66.5905 5.89582 67.8385 5.89582C68.7185 5.89582 69.6145 5.99182 70.5265 6.18382C71.4385 6.37582 72.1985 6.65582 72.8065 7.02382L71.5585 9.68782C70.9345 9.31982 70.3025 9.07182 69.6625 8.94382C69.0385 8.79982 68.4305 8.72782 67.8385 8.72782C67.0065 8.72782 66.3985 8.83982 66.0145 9.06382C65.6305 9.28782 65.4385 9.57582 65.4385 9.92782C65.4385 10.2478 65.5745 10.4878 65.8465 10.6478C66.1345 10.8078 66.5105 10.9358 66.9745 11.0318C67.4385 11.1278 67.9425 11.2158 68.4865 11.2958C69.0465 11.3598 69.6065 11.4638 70.1665 11.6078C70.7265 11.7518 71.2305 11.9598 71.6785 12.2318C72.1425 12.4878 72.5185 12.8478 72.8065 13.3118C73.0945 13.7598 73.2385 14.3518 73.2385 15.0878C73.2385 15.8878 72.9985 16.5998 72.5185 17.2238C72.0385 17.8318 71.3425 18.3118 70.4305 18.6638C69.5345 19.0158 68.4385 19.1918 67.1425 19.1918Z" fill="#252B42"/>
<path d="M82.0565 19.1918C80.5845 19.1918 79.2885 18.9038 78.1685 18.3278C77.0645 17.7518 76.2085 16.9678 75.6005 15.9758C74.9925 14.9678 74.6885 13.8238 74.6885 12.5438C74.6885 11.2478 74.9845 10.1038 75.5765 9.11182C76.1845 8.10382 77.0085 7.31982 78.0485 6.75982C79.0885 6.18382 80.2645 5.89582 81.5765 5.89582C82.8405 5.89582 83.9765 6.16782 84.9845 6.71182C86.0085 7.23982 86.8165 8.00782 87.4085 9.01582C88.0005 10.0078 88.2965 11.1998 88.2965 12.5918C88.2965 12.7358 88.2885 12.9038 88.2725 13.0958C88.2565 13.2718 88.2405 13.4398 88.2245 13.5998H77.7365V11.4158H86.2565L84.8165 12.0638C84.8165 11.3918 84.6805 10.8078 84.4085 10.3118C84.1365 9.81582 83.7605 9.43182 83.2805 9.15982C82.8005 8.87182 82.2405 8.72782 81.6005 8.72782C80.9605 8.72782 80.3925 8.87182 79.8965 9.15982C79.4165 9.43182 79.0405 9.82382 78.7685 10.3358C78.4965 10.8318 78.3605 11.4238 78.3605 12.1118V12.6878C78.3605 13.3918 78.5125 14.0158 78.8165 14.5598C79.1365 15.0878 79.5765 15.4958 80.1365 15.7838C80.7125 16.0558 81.3845 16.1918 82.1525 16.1918C82.8405 16.1918 83.4405 16.0878 83.9525 15.8798C84.4805 15.6718 84.9605 15.3598 85.3925 14.9438L87.3845 17.1038C86.7925 17.7758 86.0485 18.2958 85.1525 18.6638C84.2565 19.0158 83.2245 19.1918 82.0565 19.1918Z" fill="#252B42"/>
</svg>
